Coordinates
version=1
nRows=11
nColumns=36
inDegrees=yes

Units are S.I. units (second, meters, Newtons, ...)
If the header above contains a line with 'inDegrees', this indicates whether rotational values are in degrees (yes) or radians (no).

endheader
time	pelvis_tilt	pelvis_list	pelvis_rotation	pelvis_tx	pelvis_ty	pelvis_tz	hip_flexion_r	hip_adduction_r	hip_rotation_r	knee_angle_r	knee_angle_r_beta	ankle_angle_r	subtalar_angle_r	mtp_angle_r	hip_flexion_l	hip_adduction_l	hip_rotation_l	knee_angle_l	knee_angle_l_beta	ankle_angle_l	subtalar_angle_l	mtp_angle_l	lumbar_extension	lumbar_bending	lumbar_rotation	arm_flex_r	arm_add_r	arm_rot_r	elbow_flex_r	pro_sup_r	arm_flex_l	arm_add_l	arm_rot_l	elbow_flex_l	pro_sup_l
      0.00000000	     -0.93491980	     -1.96613518	     -1.04537355	     -0.96413655	      1.22445972	     -0.09059160	     -1.84388124	      2.34972700	     -0.95522325	      3.99324963	      0.06969535	      3.79045578	     -7.04904339	     -5.52050210	     -2.50756739	     -1.98093717	     -3.48118069	      1.85788847	      0.03242627	      7.01881075	     -2.41819402	     -5.52050210	     -7.39167494	      3.53360617	      0.38382101	      1.74654239	     -6.86100735	     12.57593028	     22.67734681	     74.75770170	      0.32951926	     -5.12982038	     12.56901799	     25.93190107	     71.66454347
      0.00416670	     -2.92380391	     -1.66005453	     -1.37874505	     -0.96231902	      1.22379888	     -0.09097733	      1.17383325	      2.12531877	     -0.42710535	      5.53232447	      0.09655728	      6.95103716	     -5.55357352	     -6.46848553	      0.00585786	     -1.17956640	     -2.91773039	      2.21736287	      0.03870028	      6.39756509	     -2.80688339	     -6.46848553	     -4.75337647	      3.61855248	      0.49383271	      0.92918368	     -5.74487361	      5.56270347	     22.40358753	     80.88819142	     -0.51387035	     -3.69006481	      6.74176673	     25.64430464	     77.81640355
      0.00833330	     -3.88184431	     -0.77211985	     -1.64935798	     -0.96310962	      1.22351966	     -0.09056788	      2.07877114	      1.20644420	     -0.82345350	      5.04896518	      0.08812107	      7.55111269	     -4.03036596	     -6.70479241	      0.97166060	     -0.24665293	     -3.49519239	      2.07834581	      0.03627398	      6.40005093	     -2.38173709	     -6.70479241	     -3.37962786	      2.48365389	      0.69707043	      0.35593854	     -4.99647439	      2.79702278	     22.95327531	     78.57454932	     -0.90437098	     -3.72088423	      5.86410281	     25.68975487	     76.26477765
      0.01250000	     -3.54165879	     -0.38128042	     -1.76826560	     -0.96281779	      1.22532086	     -0.08951178	      1.45099484	      0.70859534	     -0.99319804	      4.41552931	      0.07706552	      7.42626674	     -3.60179464	     -6.81410381	      0.25534471	      0.24269510	     -3.16580558	      1.56714911	      0.02735191	      6.00768728	     -2.72708538	     -6.81410381	     -3.83950566	      2.00429519	      0.96625023	      0.23994535	     -4.71989835	      1.74920012	     23.34527656	     77.37482879	     -0.89880663	     -3.90713530	      5.57797527	     25.92243452	     75.39442018
      0.01666670	     -3.38774968	     -0.20190964	     -1.77539933	     -0.96316700	      1.22346654	     -0.08919535	      0.93526314	      0.54093084	     -1.26547151	      3.75041986	      0.06545717	      7.43481257	     -3.05360014	     -7.18133286	     -0.07521819	      0.51486225	     -2.78522891	      1.26174981	      0.02202169	      6.00560147	     -2.96134783	     -7.18133286	     -4.25516397	      1.80573845	      1.54794285	     -0.43521556	     -4.17423822	     -2.79141403	     24.72214968	     83.07218309	     -0.72424536	     -3.89525036	      4.61280187	     26.45766015	     80.78437095
      0.02083330	     -3.28288864	     -0.11560961	     -1.64025634	     -0.96393034	      1.22328705	     -0.08904689	      0.66749849	      0.51688938	     -0.96170738	      3.46447963	      0.06046658	      7.43547705	     -2.90098937	     -7.27774799	     -0.13852585	      0.62914227	     -2.30139172	      1.19063232	      0.02078045	      6.05988024	     -3.25156138	     -7.27774799	     -4.44206807	      1.71466328	      1.66398615	     -0.47673948	     -4.26495150	     -1.88569721	     25.02825761	     81.57591570	     -0.55047807	     -4.03865149	      5.44001173	     26.66674533	     79.59979482
      0.02500000	     -3.24164119	     -0.10067150	     -1.48470517	     -0.96390218	      1.22418343	     -0.08965248	      0.46742438	      0.50560767	     -0.68815644	      3.13874210	      0.05478138	      7.26506741	     -2.90865705	     -7.37671593	     -0.12252486	      0.65425753	     -1.83785022	      1.13947043	      0.01988751	      6.00075818	     -3.52148553	     -7.37671593	     -4.59985429	      1.74088149	      1.78601734	     -0.58147085	     -4.41771879	     -0.52511471	     25.32434065	     77.57336057	     -0.38744730	     -4.10673768	      6.56845073	     27.09521338	     75.95407112
      0.02916670	     -3.34124521	     -0.09310120	     -1.38391399	     -0.96459194	      1.22350851	     -0.08983469	      0.56042711	      0.51067897	     -0.42710641	      3.03992318	      0.05305667	      7.08221525	     -2.96066443	     -7.44739143	      0.06140586	      0.67209991	     -1.57060376	      1.14809908	      0.02003811	      5.86233772	     -3.85173831	     -7.44739143	     -4.47913225	      1.73683468	      1.81470903	     -0.55286641	     -4.33069705	     -1.26303637	     25.34461078	     82.26467517	     -0.25641585	     -3.95814231	      5.41875512	     27.17840450	     81.14634016
      0.03333330	     -3.50606938	     -0.09824645	     -1.30892406	     -0.96370523	      1.22259007	     -0.08975225	      0.70836817	      0.54297407	     -0.27226632	      2.99965480	      0.05235385	      7.01782691	     -2.86553400	     -7.45971706	      0.27472660	      0.66169737	     -1.38810929	      1.17705180	      0.02054343	      5.75112476	     -4.05550701	     -7.45971706	     -4.19432937	      1.74688247	      1.87197094	     -0.55386549	     -4.28646750	     -0.86540179	     25.14077894	     79.63005884	     -0.06309197	     -3.84424266	      5.57684941	     26.88620590	     78.60436081
      0.03750000	     -3.37443101	     -0.11570354	     -1.24843666	     -0.96348593	      1.22334923	     -0.08986448	      0.47405093	      0.58384602	     -0.03125185	      2.83942450	      0.04955731	      6.82022487	     -3.00606816	     -7.47443351	      0.10580007	      0.63159916	     -1.21939350	      1.14184644	      0.01992898	      5.53322919	     -4.44993379	     -7.47443351	     -4.40119026	      1.75363924	      1.84532531	     -0.56977265	     -4.61284512	      1.16847121	     25.46873704	     78.37959260	     -0.03585337	     -4.09551848	      7.03752117	     27.36008241	     77.30352453
      0.04166670	     -3.49570404	     -0.11727739	     -1.29571921	     -0.96410848	      1.21907625	     -0.09015967	      0.61150593	      0.61160200	      0.33333804	      2.85781699	      0.04987832	      6.69271539	     -3.30737172	     -7.47514481	      0.26504648	      0.62610794	     -1.22141289	      1.20112139	      0.02096352	      5.53714133	     -4.58158952	     -7.47514481	     -4.23906662	      1.75185960	      1.88151174	     -0.63813639	     -4.61397626	      1.11329687	     25.62523420	     78.91224203	     -0.03070877	     -4.04874881	      6.74830593	     27.41595738	     77.83785894
